<svg preserveAspectRatio="none" width="100%" height="100%" overflow="visible" style="display: block;" viewBox="0 0 18.0241 23.6262" fill="none" xmlns="http://www.w3.org/2000/svg">
<g id="sign" clip-path="url(#clip0_0_6259)">
<path id="Vector" d="M17.8248 13.9131L11.8902 8.69471H15.9453C16.6046 8.69471 17.1391 8.1649 17.1391 7.51153V1.18335C17.1391 0.529986 16.6046 0.000178457 15.9453 0.000178457H3.79927C3.46784 0.000178457 3.22907 0.214749 3.14698 0.478136L0.081458 9.05186C-0.0554553 9.30808 -0.0304102 9.64759 0.230337 9.87677L5.9793 14.9319H1.51014C0.8509 14.9319 0.316325 15.4617 0.316325 16.115V22.4435C0.316325 23.0969 0.8509 23.6267 1.51014 23.6267H14.2119C14.5311 23.6267 14.7568 23.411 14.8222 23.1537L17.9573 14.6164C18.0705 14.3966 18.0469 14.1086 17.8248 13.9134V13.9131Z" fill="var(--fill-0, #FFF2F5)"/>
<path id="Vector_2" d="M17.4347 14.9324H5.97988L14.6294 22.538C14.8233 22.7085 14.8756 22.9448 14.8225 23.1539L17.9576 14.6166C17.8643 14.7975 17.6787 14.9324 17.4347 14.9324Z" fill="var(--fill-0, #FDF2F8)"/>
<path id="Vector_3" d="M17.825 13.9134L11.8905 8.69506H0.683607C0.404493 8.69506 0.191331 8.84702 0.0819675 9.05222C-0.0549458 9.30843 -0.0299007 9.64794 0.230847 9.87713L5.97981 14.9322H17.4349C17.6789 14.9322 17.8646 14.7974 17.9578 14.6164C18.071 14.3966 18.0474 14.1087 17.8253 13.9134H17.825Z" fill="var(--fill-0, #BE185D)"/>
<path id="Vector_4" d="M14.6296 22.538L5.98017 14.9323H1.51073C0.851484 14.9323 0.31691 15.4621 0.31691 16.1155V22.4439C0.31691 23.0973 0.851484 23.6271 1.51073 23.6271H14.2125C14.5317 23.6271 14.7574 23.4114 14.8228 23.1541C14.8759 22.9451 14.8236 22.7087 14.6296 22.5383V22.538Z" fill="var(--fill-0, #E11D74)"/>
<path id="Vector_5" d="M0.683777 8.69493H11.8906L3.34691 1.18247C3.1254 0.987755 3.07392 0.713612 3.14738 0.478356L0.0818593 9.05209C0.191501 8.84689 0.404663 8.69493 0.683499 8.69493H0.683777Z" fill="var(--fill-0, #FBCFE8)"/>
</g>
<defs>
<clipPath id="clip0_0_6259">
<rect width="18.0241" height="23.6262" fill="white"/>
</clipPath>
</defs>
</svg>
