<svg preserveAspectRatio="none" width="100%" height="100%" overflow="visible" style="display: block;" viewBox="0 0 112.7 23.5129" fill="none" xmlns="http://www.w3.org/2000/svg">
<g id="Group 40588">
<g id="shopcord">
<path d="M5.39994 18.458C2.14974 18.458 0.0511842 16.722 0 14.2966H3.78763C3.81322 14.9604 4.29947 15.2923 5.34875 15.2923C6.52599 15.2923 6.90987 14.8838 6.90987 14.3477C6.90987 13.5052 5.98855 13.4286 4.81132 13.2499C3.07105 12.9946 0.204737 12.5606 0.204737 9.52258C0.204737 6.96961 2.22651 5.18253 5.37434 5.18253C8.52217 5.18253 10.4672 6.99514 10.544 9.26728H6.8075C6.70513 8.6801 6.19329 8.34821 5.42553 8.34821C4.47862 8.34821 4.09474 8.83328 4.09474 9.34387C4.09474 10.1098 5.01605 10.2119 6.19329 10.3906C8.01033 10.6459 10.7999 11.131 10.7999 14.1179C10.7999 16.722 8.65013 18.458 5.39994 18.458Z" fill="var(--fill-0, #1F1F1F)"/>
<path d="M12.9199 18.1261V0H16.7588V6.86749C17.5265 5.76971 18.6014 5.18253 19.9066 5.18253C22.5682 5.18253 25.4089 6.96961 25.4089 11.5905V18.1261H21.5701V11.5905C21.5701 9.59917 20.5976 8.75669 19.1644 8.75669C17.7824 8.75669 16.7588 9.65023 16.7588 11.5905V18.1261H12.9199Z" fill="var(--fill-0, #1F1F1F)"/>
<path d="M33.9038 18.458C29.9114 18.458 27.0963 15.6497 27.0963 11.8203C27.0963 7.9908 29.9114 5.18253 33.9038 5.18253C37.8962 5.18253 40.7113 7.9908 40.7113 11.8203C40.7113 15.6497 37.8962 18.458 33.9038 18.458ZM33.9038 14.8838C35.6441 14.8838 36.8213 13.6329 36.8213 11.8203C36.8213 10.0076 35.6441 8.75669 33.9038 8.75669C32.1635 8.75669 30.9863 10.0076 30.9863 11.8203C30.9863 13.6329 32.1635 14.8838 33.9038 14.8838Z" fill="var(--fill-0, #1F1F1F)"/>
<path d="M42.4059 23.5129V11.9479C42.4059 7.70997 45.2722 5.18253 49.1366 5.18253C53.1546 5.18253 55.9697 7.91421 55.9697 11.9734C55.9697 16.3645 52.6939 18.458 49.8276 18.458C48.3177 18.458 47.0381 17.8708 46.2447 16.7475V23.5129H42.4059ZM49.1622 14.8838C50.9025 14.8838 52.0797 13.6329 52.0797 11.8203C52.0797 10.0076 50.9025 8.75669 49.1622 8.75669C47.422 8.75669 46.2447 10.0076 46.2447 11.8203C46.2447 13.6329 47.422 14.8838 49.1622 14.8838Z" fill="var(--fill-0, #1F1F1F)"/>
<path d="M63.9742 18.458C59.9818 18.458 57.1667 15.6497 57.1667 11.8203C57.1667 7.9908 59.9818 5.18253 63.9742 5.18253C67.4803 5.18253 70.0395 7.35256 70.5769 10.4672H66.6869C66.2519 9.42046 65.2538 8.75669 63.9742 8.75669C62.2339 8.75669 61.0567 10.0076 61.0567 11.8203C61.0567 13.6329 62.2339 14.8838 63.9742 14.8838C65.2538 14.8838 66.2519 14.22 66.6869 13.1733H70.5769C70.0395 16.288 67.4803 18.458 63.9742 18.458Z" fill="#FB4294"/>
<path d="M78.522 18.458C74.5297 18.458 71.7145 15.6497 71.7145 11.8203C71.7145 7.9908 74.5297 5.18253 78.522 5.18253C82.5144 5.18253 85.3295 7.9908 85.3295 11.8203C85.3295 15.6497 82.5144 18.458 78.522 18.458ZM78.522 14.8838C80.2623 14.8838 81.4395 13.6329 81.4395 11.8203C81.4395 10.0076 80.2623 8.75669 78.522 8.75669C76.7818 8.75669 75.6045 10.0076 75.6045 11.8203C75.6045 13.6329 76.7818 14.8838 78.522 14.8838Z" fill="#FB4294"/>
<path d="M87.0241 18.1261V10.9522C87.0241 7.02067 89.3274 5.18253 92.7056 5.18253C96.0837 5.18253 98.3614 6.99514 98.387 10.9778V11.0544H94.5482V10.9522C94.5482 9.26728 93.7804 8.75669 92.7056 8.75669C91.6307 8.75669 90.8629 9.26728 90.8629 10.9522V18.1261H87.0241Z" fill="#FB4294"/>
<path d="M105.969 18.458C101.951 18.458 99.1357 15.7263 99.1357 11.6671C99.1357 7.27597 102.412 5.18253 105.278 5.18253C106.788 5.18253 108.067 5.76971 108.861 6.89302V0H112.7V11.6926C112.7 15.9305 109.833 18.458 105.969 18.458ZM105.943 14.8838C107.683 14.8838 108.861 13.6329 108.861 11.8203C108.861 10.0076 107.683 8.75669 105.943 8.75669C104.203 8.75669 103.026 10.0076 103.026 11.8203C103.026 13.6329 104.203 14.8838 105.943 14.8838Z" fill="#FB4294"/>
</g>
<rect id="Rectangle 5604" x="59.7307" y="2.21913e-06" width="7.88897" height="2.25399" rx="0.362249" fill="var(--fill-0, #FB4294)"/>
</g>
</svg>
